<svg xmlns="http://www.w3.org/2000/svg" width="32" height="32" viewBox="0 0 32 32">
  <g fill="none" fill-rule="evenodd">
    <path fill="#454545" fill-rule="nonzero" d="M7,11 C7,11.5522847 6.55228475,12 6,12 C5.44771525,12 5,11.5522847 5,11 L5,8 C5,6.34314575 6.34314575,5 8,5 L12,5 C12.5522847,5 13,5.44771525 13,6 C13,6.55228475 12.5522847,7 12,7 L8,7 C7.44771525,7 7,7.44771525 7,8 L7,11 Z M12,25 C12.5522847,25 13,25.4477153 13,26 C13,26.5522847 12.5522847,27 12,27 L8,27 C6.34314575,27 5,25.6568542 5,24 L5,21 C5,20.4477153 5.44771525,20 6,20 C6.55228475,20 7,20.4477153 7,21 L7,24 C7,24.5522847 7.44771525,25 8,25 L12,25 Z M20,7 C19.4477153,7 19,6.55228475 19,6 C19,5.44771525 19.4477153,5 20,5 L24,5 C25.6568542,5 27,6.34314575 27,8 L27,11 C27,11.5522847 26.5522847,12 26,12 C25.4477153,12 25,11.5522847 25,11 L25,8 C25,7.44771525 24.5522847,7 24,7 L20,7 Z M25,21 C25,20.4477153 25.4477153,20 26,20 C26.5522847,20 27,20.4477153 27,21 L27,24 C27,25.6568542 25.6568542,27 24,27 L20,27 C19.4477153,27 19,26.5522847 19,26 C19,25.4477153 19.4477153,25 20,25 L24,25 C24.5522847,25 25,24.5522847 25,24 L25,21 Z M15,15 L15,14 C15,13.4477153 15.4477153,13 16,13 C16.5522847,13 17,13.4477153 17,14 L17,15 L27,15 C27.5522847,15 28,15.4477153 28,16 C28,16.5522847 27.5522847,17 27,17 L17,17 L17,18 C17,18.5522847 16.5522847,19 16,19 C15.4477153,19 15,18.5522847 15,18 L15,17 L5,17 C4.44771525,17 4,16.5522847 4,16 C4,15.4477153 4.44771525,15 5,15 L15,15 Z"/>
    <polygon points="0 0 32 0 32 32 0 32"/>
  </g>
</svg>