<svg xmlns="http://www.w3.org/2000/svg" width="32" height="32" viewBox="0 0 32 32">
  <g fill="none" fill-rule="evenodd">
    <path fill="#454545" fill-rule="nonzero" d="M25,9 L25,8 C25,7.44771525 24.5522847,7 24,7 L8,7 C7.44771525,7 7,7.44771525 7,8 L7,9 L25,9 Z M25,15 L7,15 L7,24 C7,24.5522847 7.44771525,25 8,25 L24,25 C24.5522847,25 25,24.5522847 25,24 L25,15 Z M8,5 L24,5 C25.6568542,5 27,6.34314575 27,8 L27,24 C27,25.6568542 25.6568542,27 24,27 L8,27 C6.34314575,27 5,25.6568542 5,24 L5,8 C5,6.34314575 6.34314575,5 8,5 Z M7,11 L7,13 L25,13 L25,11 L7,11 Z M20,20 L21,20 C21.5522847,20 22,20.4477153 22,21 C22,21.5522847 21.5522847,22 21,22 L20,22 C19.4477153,22 19,21.5522847 19,21 C19,20.4477153 19.4477153,20 20,20 Z"/>
    <rect width="32" height="32"/>
  </g>
</svg>